# xmcd
# Copyright (C) 1995-1998 Ti Kan
#
# Track frame offsets:
#       150
#       74269
#       141757
#       215759
#
# Disc length: 3818 seconds
#
# Revision: 0
# Processed by: cddbd v1.5.2PL0 Copyright (c) Steve Scherf et al.
# Submitted via: CD-Transfer v1.0
#
DISCID=3d0ee804
DTITLE=Friday Night Life Mixed By Dj U.r.s. - 
DYEAR=1900
DGENRE=
TTITLE0=Dance
TTITLE1=Rnb
TTITLE2=So Soul
TTITLE3=Latin
EXTD=
EXTT0=
EXTT1=
EXTT2=
EXTT3=
PLAYORDER=
